<svg xmlns="http://www.w3.org/2000/svg" width="18" height="16" viewBox="0 0 18 16"><defs><style>.a{fill:#f7941d;stroke:#f7941d;}</style></defs><g transform="translate(0.5 0.5)"><path class="a" d="M3.545,11.3a1.524,1.524,0,0,1,.9.3L6.25,12.9v-.418a1.953,1.953,0,0,1,1.932-1.973h.089a3.2,3.2,0,0,1-.857-3.485,3.069,3.069,0,0,1,5.786,0,3.2,3.2,0,0,1-.857,3.485h1.843A2.4,2.4,0,0,1,14.325,7.2a2.284,2.284,0,0,1,3.243.072,2.4,2.4,0,0,1,0,3.312A1.966,1.966,0,0,1,19,12.485v5.524a1.953,1.953,0,0,1-1.932,1.973H8.182A1.953,1.953,0,0,1,6.25,18.008V17.59L4.461,18.9a1.519,1.519,0,0,1-1.618.134A1.583,1.583,0,0,1,2,17.614V12.879A1.562,1.562,0,0,1,3.545,11.3Zm9.08-3.156a2.319,2.319,0,1,0-2.318,2.367A2.343,2.343,0,0,0,12.625,8.145Zm3.284-.789a1.579,1.579,0,1,0,1.545,1.578A1.562,1.562,0,0,0,15.909,7.356ZM7.023,18.008a1.172,1.172,0,0,0,1.159,1.184h8.886a1.172,1.172,0,0,0,1.159-1.184V12.485A1.172,1.172,0,0,0,17.068,11.3H8.182a1.172,1.172,0,0,0-1.159,1.184Zm-4.25-.395a.792.792,0,0,0,.419.725.76.76,0,0,0,.821-.074L6.25,16.624V13.862L4.013,12.232a.76.76,0,0,0-.819-.075.792.792,0,0,0-.421.722Z" transform="translate(-2 -4.981)"/></g></svg>