<svg xmlns="http://www.w3.org/2000/svg" width="16.001" height="12.801" viewBox="0 0 16.001 12.801"><defs><style>.a{fill:#f7941d;}</style></defs><g transform="translate(0 -51.198)"><g transform="translate(0 53.598)"><path class="a" d="M11.334,128H.832a.821.821,0,0,0-.816.641.8.8,0,0,0,.785.96H11.334a.133.133,0,0,0,.133-.133v-1.333A.133.133,0,0,0,11.334,128Z" transform="translate(0 -128.004)"/></g><g transform="translate(12.001 51.198)"><path class="a" d="M387.907,54.195l-3.467-2.933a.267.267,0,0,0-.439.2v5.867a.267.267,0,0,0,.439.2l3.467-2.933a.267.267,0,0,0,0-.407Z" transform="translate(-384.001 -51.198)"/></g><g transform="translate(0 57.599)"><path class="a" d="M3.847,256.032a.267.267,0,0,0-.285.038L.1,259a.267.267,0,0,0,0,.407l3.467,2.933a.267.267,0,0,0,.172.063A.267.267,0,0,0,4,262.141v-5.867A.267.267,0,0,0,3.847,256.032Z" transform="translate(-0.001 -256.007)"/></g><g transform="translate(4.534 59.999)"><g transform="translate(0 0)"><path class="a" d="M156.519,333.445a.822.822,0,0,0-.816-.641H145.2a.133.133,0,0,0-.133.133v1.333a.133.133,0,0,0,.133.133h10.534A.8.8,0,0,0,156.519,333.445Z" transform="translate(-145.067 -332.804)"/></g></g></g></svg>